<svg width="120" height="120" viewBox="0 0 120 120" fill="none" xmlns="http://www.w3.org/2000/svg">
  <!-- Shield Background -->
  <path d="M60 5L10 25V55C10 80 25 100 60 115C95 100 110 80 110 55V25L60 5Z" fill="#003D7A" stroke="#FFD700" stroke-width="2"/>

  <!-- Inner Shield -->
  <path d="M60 15L20 30V55C20 75 32 90 60 102C88 90 100 75 100 55V30L60 15Z" fill="#0052A5"/>

  <!-- Book -->
  <rect x="40" y="45" width="40" height="30" rx="2" fill="white"/>
  <line x1="60" y1="45" x2="60" y2="75" stroke="#003D7A" stroke-width="2"/>
  <line x1="45" y1="52" x2="55" y2="52" stroke="#003D7A" stroke-width="1.5"/>
  <line x1="45" y1="58" x2="55" y2="58" stroke="#003D7A" stroke-width="1.5"/>
  <line x1="45" y1="64" x2="55" y2="64" stroke="#003D7A" stroke-width="1.5"/>
  <line x1="65" y1="52" x2="75" y2="52" stroke="#003D7A" stroke-width="1.5"/>
  <line x1="65" y1="58" x2="75" y2="58" stroke="#003D7A" stroke-width="1.5"/>
  <line x1="65" y1="64" x2="75" y2="64" stroke="#003D7A" stroke-width="1.5"/>

  <!-- Star of Excellence -->
  <path d="M60 28L62 34L68 34L63 38L65 44L60 40L55 44L57 38L52 34L58 34L60 28Z" fill="#FFD700"/>

  <!-- Laurel Leaves -->
  <path d="M30 85C28 80 27 75 28 70" stroke="#FFD700" stroke-width="2" stroke-linecap="round" fill="none"/>
  <path d="M32 82C30 78 29 74 30 70" stroke="#FFD700" stroke-width="1.5" stroke-linecap="round" fill="none"/>
  <path d="M90 85C92 80 93 75 92 70" stroke="#FFD700" stroke-width="2" stroke-linecap="round" fill="none"/>
  <path d="M88 82C90 78 91 74 90 70" stroke="#FFD700" stroke-width="1.5" stroke-linecap="round" fill="none"/>
</svg>
